# xmcd
#
# Track frame offsets:
#	150
#	15159
#	32570
#	49355
#	65177
#	87522
#	106797
#	124160
#	140787
#	165369
#	183270
#	201503
#	214292
#	228774
#	245664
#
# Disc length: 3588 seconds
#
# Revision: 1
# Processed by: cddbd v1.5.2PL0 Copyright (c) Steve Scherf et al.
# Submitted via: audiograbber 1.83.01
#
DISCID=d50e020f
DTITLE=Mike Goudreau and The Boppin' Blues Band - Boppin' 15
DYEAR=2007
DGENRE=Blues
TTITLE0=You Should Have Known Better
TTITLE1=Look At Little Sister
TTITLE2=Blues Des Loups
TTITLE3=Way Down South
TTITLE4=Same Old Blues
TTITLE5=I Dig My Job
TTITLE6=Juke Joint Café
TTITLE7=Love This Rhythm
TTITLE8=On Se Retrouvera
TTITLE9=Come Home Baby
TTITLE10=Spend The Money Blues
TTITLE11=Have You Been Down To New Orleans?
TTITLE12=The Grass Ain't Greener
TTITLE13=Ma Meilleure Amie
TTITLE14=Celestial Shore
EXTD=
EXTT0=
EXTT1=
EXTT2=
EXTT3=
EXTT4=
EXTT5=
EXTT6=
EXTT7=
EXTT8=
EXTT9=
EXTT10=
EXTT11=
EXTT12=
EXTT13=
EXTT14=
PLAYORDER=
